<svg width="93" height="18" viewBox="0 0 93 18" fill="none" xmlns="http://www.w3.org/2000/svg">
<path d="M31.498 17V1.15998H38.434C40.354 1.15998 41.77 1.53598 42.682 2.28798C43.594 3.03998 44.05 4.10398 44.05 5.47998C44.05 6.32798 43.794 7.07998 43.282 7.73598C42.77 8.39198 42.018 8.80798 41.026 8.98398V9.00798C42.13 9.16798 42.978 9.58398 43.57 10.256C44.162 10.928 44.458 11.728 44.458 12.656C44.458 14.016 43.962 15.08 42.97 15.848C41.994 16.616 40.562 17 38.674 17H31.498ZM34.714 14.504H38.386C39.282 14.504 39.946 14.32 40.378 13.952C40.81 13.584 41.026 13.072 41.026 12.416C41.026 11.744 40.81 11.232 40.378 10.88C39.946 10.528 39.282 10.352 38.386 10.352H34.714V14.504ZM34.714 7.80798H38.002C39.746 7.80798 40.618 7.12798 40.618 5.76798C40.618 4.40798 39.746 3.72798 38.002 3.72798H34.714V7.80798Z" fill="white"/>
<path d="M50.935 14.336H59.287V17H47.623V1.15998H50.935V14.336Z" fill="white"/>
<path d="M68.338 0.919983C69.906 0.919983 71.258 1.24798 72.394 1.90398C73.53 2.55998 74.402 3.49598 75.01 4.71198C75.634 5.92798 75.946 7.38398 75.946 9.07998C75.946 10.776 75.634 12.232 75.01 13.448C74.402 14.664 73.53 15.6 72.394 16.256C71.258 16.912 69.906 17.24 68.338 17.24C66.77 17.24 65.41 16.912 64.258 16.256C63.122 15.6 62.242 14.664 61.618 13.448C61.01 12.232 60.706 10.776 60.706 9.07998C60.706 7.38398 61.01 5.92798 61.618 4.71198C62.242 3.49598 63.122 2.55998 64.258 1.90398C65.41 1.24798 66.77 0.919983 68.338 0.919983ZM68.338 3.63198C67.442 3.63198 66.682 3.83998 66.058 4.25598C65.434 4.67198 64.954 5.28798 64.618 6.10398C64.298 6.90398 64.138 7.89598 64.138 9.07998C64.138 10.248 64.298 11.24 64.618 12.056C64.954 12.872 65.434 13.488 66.058 13.904C66.682 14.32 67.442 14.528 68.338 14.528C69.218 14.528 69.97 14.32 70.594 13.904C71.218 13.488 71.69 12.872 72.01 12.056C72.346 11.24 72.514 10.248 72.514 9.07998C72.514 7.89598 72.346 6.90398 72.01 6.10398C71.69 5.28798 71.218 4.67198 70.594 4.25598C69.97 3.83998 69.218 3.63198 68.338 3.63198Z" fill="white"/>
<path d="M85.7911 17.24C84.3351 17.24 83.0551 16.92 81.9511 16.28C80.8631 15.64 80.0151 14.712 79.4071 13.496C78.7991 12.28 78.4951 10.816 78.4951 9.10398C78.4951 7.40798 78.8151 5.95198 79.4551 4.73598C80.0951 3.50398 80.9991 2.55998 82.1671 1.90398C83.3511 1.24798 84.7191 0.919983 86.2711 0.919983C87.9831 0.919983 89.3671 1.23998 90.4231 1.87998C91.4791 2.50398 92.3191 3.47998 92.9431 4.80798L89.8711 6.12798C89.6151 5.27998 89.1751 4.65598 88.5511 4.25598C87.9431 3.83998 87.1911 3.63198 86.2951 3.63198C85.3991 3.63198 84.6231 3.84798 83.9671 4.27998C83.3111 4.69598 82.8071 5.31198 82.4551 6.12798C82.1031 6.92798 81.9271 7.91198 81.9271 9.07998C81.9271 10.28 82.0951 11.296 82.4311 12.128C82.7671 12.944 83.2631 13.56 83.9191 13.976C84.5911 14.376 85.4151 14.576 86.3911 14.576C86.9191 14.576 87.4071 14.512 87.8551 14.384C88.3191 14.256 88.7191 14.064 89.0551 13.808C89.3911 13.552 89.6551 13.224 89.8471 12.824C90.0391 12.424 90.1351 11.96 90.1351 11.432V11.072H85.9831V8.64798H92.9911V17H90.6631L90.4231 13.544L90.9991 13.952C90.6471 15.008 90.0231 15.824 89.1271 16.4C88.2471 16.96 87.1351 17.24 85.7911 17.24Z" fill="white"/>
<path d="M4.8 1H11.2C13.8472 1 16 3.1528 16 5.8V16.2C16 16.4122 15.9157 16.6157 15.7657 16.7657C15.6157 16.9157 15.4122 17 15.2 17H4.8C2.1528 17 0 14.8472 0 12.2V5.8C0 3.1528 2.1528 1 4.8 1ZM6.4 11.4H12V9.8H6.4V11.4ZM4 8.2H12V6.6H4V8.2Z" fill="white"/>
</svg>
