<svg width="93" height="18" viewBox="0 0 93 18" fill="none" xmlns="http://www.w3.org/2000/svg">
<path d="M45.7602 12.632C45.2802 14.184 44.4402 15.344 43.2402 16.112C42.0402 16.864 40.6402 17.24 39.0402 17.24C37.4722 17.24 36.1122 16.912 34.9602 16.256C33.8242 15.6 32.9442 14.664 32.3202 13.448C31.7122 12.232 31.4082 10.776 31.4082 9.07998C31.4082 7.38398 31.7202 5.92798 32.3442 4.71198C32.9682 3.49598 33.8482 2.55998 34.9842 1.90398C36.1202 1.24798 37.4562 0.919983 38.9922 0.919983C40.6082 0.919983 41.9922 1.26398 43.1442 1.95198C44.3122 2.62398 45.1122 3.64798 45.5442 5.02398L42.5442 6.29598C42.2722 5.33598 41.8562 4.65598 41.2962 4.25598C40.7362 3.83998 40.0162 3.63198 39.1362 3.63198C37.8242 3.63198 36.7762 4.10398 35.9922 5.04798C35.2242 5.97598 34.8402 7.31998 34.8402 9.07998C34.8402 10.824 35.2082 12.168 35.9442 13.112C36.6802 14.056 37.7442 14.528 39.1362 14.528C40.0002 14.528 40.7442 14.296 41.3682 13.832C42.0082 13.368 42.4562 12.664 42.7122 11.72L45.7602 12.632Z" fill="white"/>
<path d="M51.895 14.336H60.247V17H48.583V1.15998H51.895V14.336Z" fill="white"/>
<path d="M75.9867 1.15998V10.76C75.9867 12.92 75.4107 14.544 74.2587 15.632C73.1067 16.704 71.4267 17.24 69.2187 17.24C67.0107 17.24 65.3307 16.704 64.1787 15.632C63.0267 14.544 62.4507 12.92 62.4507 10.76V1.15998H65.7627V10.616C65.7627 11.944 66.0427 12.928 66.6027 13.568C67.1787 14.208 68.0507 14.528 69.2187 14.528C70.3867 14.528 71.2507 14.208 71.8107 13.568C72.3707 12.928 72.6507 11.944 72.6507 10.616V1.15998H75.9867Z" fill="white"/>
<path d="M79.8018 17V1.15998H86.7378C88.6578 1.15998 90.0738 1.53598 90.9858 2.28798C91.8978 3.03998 92.3538 4.10398 92.3538 5.47998C92.3538 6.32798 92.0978 7.07998 91.5858 7.73598C91.0738 8.39198 90.3218 8.80798 89.3298 8.98398V9.00798C90.4338 9.16798 91.2818 9.58398 91.8738 10.256C92.4658 10.928 92.7618 11.728 92.7618 12.656C92.7618 14.016 92.2658 15.08 91.2738 15.848C90.2978 16.616 88.8658 17 86.9778 17H79.8018ZM83.0178 7.80798H86.3058C88.0498 7.80798 88.9218 7.12798 88.9218 5.76798C88.9218 4.40798 88.0498 3.72798 86.3058 3.72798H83.0178V7.80798ZM83.0178 14.504H86.6898C87.5698 14.504 88.2258 14.328 88.6578 13.976C89.1058 13.608 89.3298 13.088 89.3298 12.416C89.3298 11.76 89.1058 11.256 88.6578 10.904C88.2258 10.536 87.5698 10.352 86.6898 10.352H83.0178V14.504Z" fill="white"/>
<path d="M2.67733 14.2222H16V1.77778C16 0.797333 15.2027 0 14.2222 0H2.66667C1.59467 0 0 0.710222 0 2.66667V15.1111C0 17.0676 1.59467 17.7778 2.66667 17.7778H16V16H2.67733C2.26667 15.9893 1.77778 15.8276 1.77778 15.1111C1.77778 15.0213 1.78578 14.9413 1.79911 14.8684C1.89867 14.3564 2.31822 14.2311 2.67733 14.2222ZM5.02044 5.01511C5.39043 4.64984 5.88942 4.44502 6.40933 4.44502C6.92925 4.44502 7.42824 4.64984 7.79822 5.01511L7.99733 5.20978L8.19556 5.01511C8.56569 4.64978 9.06483 4.44494 9.58489 4.44494C10.105 4.44494 10.6041 4.64978 10.9742 5.01511C11.1578 5.19169 11.3039 5.40351 11.4037 5.63789C11.5034 5.87227 11.5549 6.12438 11.5549 6.37911C11.5549 6.63384 11.5034 6.88595 11.4037 7.12033C11.3039 7.35471 11.1578 7.56654 10.9742 7.74311L7.99822 10.6667L5.02133 7.74311C4.83756 7.56666 4.69133 7.3549 4.59141 7.12055C4.49149 6.88619 4.43995 6.63407 4.43986 6.3793C4.43978 6.12453 4.49116 5.87238 4.59093 5.63795C4.6907 5.40353 4.83679 5.19168 5.02044 5.01511Z" fill="white"/>
</svg>
