<svg width="139" height="18" viewBox="0 0 139 18" fill="none" xmlns="http://www.w3.org/2000/svg">
<path d="M36.4459 17L31.8379 1.15998H35.3659L38.4859 14.24L41.6539 1.15998H44.8219L48.0379 14.24L51.1339 1.15998H54.5179L49.9099 17H46.1899L43.9819 8.35998L43.2379 4.61598H43.1899L42.4459 8.35998L40.2619 17H36.4459Z" fill="white"/>
<path d="M57.0709 17V1.15998H68.9509V3.82398H60.3829V7.75998H67.1269V10.304H60.3829V14.336H69.2869V17H57.0709Z" fill="white"/>
<path d="M72.2584 17V1.15998H79.1944C81.1144 1.15998 82.5304 1.53598 83.4424 2.28798C84.3544 3.03998 84.8104 4.10398 84.8104 5.47998C84.8104 6.32798 84.5544 7.07998 84.0424 7.73598C83.5304 8.39198 82.7784 8.80798 81.7864 8.98398V9.00798C82.8904 9.16798 83.7384 9.58398 84.3304 10.256C84.9224 10.928 85.2184 11.728 85.2184 12.656C85.2184 14.016 84.7224 15.08 83.7304 15.848C82.7544 16.616 81.3224 17 79.4344 17H72.2584ZM75.4744 7.80798H78.7624C80.5064 7.80798 81.3784 7.12798 81.3784 5.76798C81.3784 4.40798 80.5064 3.72798 78.7624 3.72798H75.4744V7.80798ZM75.4744 14.504H79.1464C80.0264 14.504 80.6824 14.328 81.1144 13.976C81.5624 13.608 81.7864 13.088 81.7864 12.416C81.7864 11.76 81.5624 11.256 81.1144 10.904C80.6824 10.536 80.0264 10.352 79.1464 10.352H75.4744V14.504Z" fill="white"/>
<path d="M94.1674 0.919983C95.6074 0.919983 96.8714 1.16798 97.9594 1.66398C99.0474 2.15998 99.9754 2.89598 100.743 3.87198L98.8954 6.00798C98.2394 5.17598 97.5194 4.56798 96.7354 4.18398C95.9674 3.78398 95.0714 3.58398 94.0474 3.58398C93.0234 3.58398 92.2794 3.77598 91.8154 4.15998C91.3514 4.52798 91.1194 4.97598 91.1194 5.50398C91.1194 5.93598 91.2794 6.30398 91.5994 6.60798C91.9354 6.89598 92.5194 7.13598 93.3514 7.32798L96.3034 7.99998C97.8554 8.35198 98.9754 8.87998 99.6634 9.58398C100.351 10.272 100.695 11.168 100.695 12.272C100.695 13.312 100.423 14.208 99.8794 14.96C99.3354 15.696 98.5754 16.264 97.5994 16.664C96.6234 17.048 95.5034 17.24 94.2394 17.24C92.5914 17.24 91.1434 16.952 89.8954 16.376C88.6474 15.8 87.6634 15.056 86.9434 14.144L88.8154 11.912C89.3594 12.68 90.1034 13.32 91.0474 13.832C92.0074 14.328 93.0714 14.576 94.2394 14.576C95.2154 14.576 95.9674 14.416 96.4954 14.096C97.0234 13.76 97.2874 13.288 97.2874 12.68C97.2874 12.28 97.1434 11.928 96.8554 11.624C96.5834 11.32 96.0714 11.088 95.3194 10.928L92.1034 10.208C90.6954 9.90398 89.6074 9.40798 88.8394 8.71998C88.0714 8.03198 87.6874 7.09598 87.6874 5.91198C87.6874 4.96798 87.9434 4.11998 88.4554 3.36798C88.9674 2.61598 89.7034 2.02398 90.6634 1.59198C91.6394 1.14398 92.8074 0.919983 94.1674 0.919983Z" fill="white"/>
<path d="M107.141 1.15998V17H103.829V1.15998H107.141Z" fill="white"/>
<path d="M123.786 1.15998V3.82398H118.482V17H115.17V3.82398H109.842V1.15998H123.786Z" fill="white"/>
<path d="M126.493 17V1.15998H138.373V3.82398H129.805V7.75998H136.549V10.304H129.805V14.336H138.709V17H126.493Z" fill="white"/>
<path d="M0 7H10.6667V17H1C0.447717 17 0 16.5523 0 16V7Z" fill="white"/>
<path d="M0 2C0 1.44772 0.447715 1 1 1H15C15.5523 1 16 1.44772 16 2V6H0V2Z" fill="white"/>
<path d="M11.5547 7H15.9991V16C15.9991 16.5523 15.5514 17 14.9991 17H11.5547V7Z" fill="white"/>
</svg>
