<svg xmlns="http://www.w3.org/2000/svg" viewBox="0 0 87 85.8358"><defs><style>.cls-1{fill:#292929;}.cls-2{fill:none;}</style></defs><g id="レイヤー_2" data-name="レイヤー 2"><g id="レイヤー_1-2" data-name="レイヤー 1"><path class="cls-1" d="M48.5161,44.4487a3.4839,3.4839,0,1,1-3.4838,3.4839,3.0957,3.0957,0,0,1,.1045-.8013L40.05,44.46a3.432,3.432,0,0,1-2.5664,1.15A3.4839,3.4839,0,1,1,40.05,39.7919l5.0865-2.6709a3.0957,3.0957,0,0,1-.1045-.8013,3.52,3.52,0,1,1,.9174,2.3342l-5.0865,2.6709a3.0951,3.0951,0,0,1,0,1.6026l5.0865,2.671a3.432,3.432,0,0,1,2.5664-1.15Z"/><rect class="cls-2" width="87" height="85.8358"/></g></g></svg>