<svg xmlns="http://www.w3.org/2000/svg" viewBox="0 0 87 86"><defs><style>.cls-1{fill:#292929;}.cls-2{fill:none;}</style></defs><g id="レイヤー_2" data-name="レイヤー 2"><g id="レイヤー_1-2" data-name="レイヤー 1"><path class="cls-1" d="M86.0173,47.5525a4.71,4.71,0,0,1-.5968,1.9181,3.8612,3.8612,0,0,1-1.2971,1.3151l-1-1.0747a3.2931,3.2931,0,0,0,1.0637-1.0141,2.9849,2.9849,0,0,0,.4606-1.3556,1.8134,1.8134,0,0,0-.1727-1.1858.8637.8637,0,0,0-.6556-.4349.7624.7624,0,0,0-.5975.1862,2.2081,2.2081,0,0,0-.47.8651l-.5126,1.488a3.4936,3.4936,0,0,1-1.0068,1.6478,1.89,1.89,0,0,1-1.4469.3828,2.32,2.32,0,0,1-1.3435-.5723,2.7078,2.7078,0,0,1-.753-1.2737,4.7449,4.7449,0,0,1-.11-1.7687,5.3382,5.3382,0,0,1,.69-2.1967,4.0967,4.0967,0,0,1,1.3188-1.4006l1.0487,1.0925a3.3418,3.3418,0,0,0-1.1173,1.046,3.56,3.56,0,0,0-.5632,1.6079,2.2764,2.2764,0,0,0,.1217,1.1928.8264.8264,0,0,0,.6875.4887.7741.7741,0,0,0,.57-.1642,1.488,1.488,0,0,0,.4457-.7548l.5522-1.6217a3.6589,3.6589,0,0,1,.9518-1.6036A1.8611,1.8611,0,0,1,83.8,43.924a2.2961,2.2961,0,0,1,1.2718.5394,2.6729,2.6729,0,0,1,.7942,1.2406A4.34,4.34,0,0,1,86.0173,47.5525Z"/><path class="cls-1" d="M84.334,55.5115l-3.1915-1.1161-1.1984,3.427,3.1914,1.1161-.5683,1.6252-7.7726-2.7182L75.363,56.22l3.2739,1.145,1.1984-3.427-3.2738-1.145.5683-1.6251,7.7725,2.7182Z"/><path class="cls-1" d="M74.6512,58.3014l5.3075,6.9765-1.1114,1.7327-8.5542-1.9149.9632-1.5017,2.0612.5069,1.7109-2.6673-1.327-1.6515Zm2.7624,6.1147-1.5431-1.9384L74.6176,64.431l2.3709.6018,1.2522.3585.0135-.021Z"/><path class="cls-1" d="M5.2584,63.4593a4.7093,4.7093,0,0,1-.5852-1.9216,3.8613,3.8613,0,0,1,.3329-1.8169l1.4316.326a3.2919,3.2919,0,0,0-.3091,1.4367,2.9836,2.9836,0,0,0,.3814,1.38,1.8135,1.8135,0,0,0,.81.8834.864.864,0,0,0,.7867-.0091.7625.7625,0,0,0,.3893-.49,2.2086,2.2086,0,0,0-.0978-.98L7.985,60.7494a3.494,3.494,0,0,1-.0942-1.9287,1.89,1.89,0,0,1,.9812-1.13,2.32,2.32,0,0,1,1.4327-.2823,2.7076,2.7076,0,0,1,1.339.63,4.7455,4.7455,0,0,1,1.0852,1.401,5.3379,5.3379,0,0,1,.665,2.2042,4.0961,4.0961,0,0,1-.3029,1.9L11.61,63.2293a3.3408,3.3408,0,0,0,.3356-1.4932,3.56,3.56,0,0,0-.4385-1.6464,2.2772,2.2772,0,0,0-.7715-.9179.8264.8264,0,0,0-.8432-.0174.7746.7746,0,0,0-.379.4563,1.4886,1.4886,0,0,0,.056.8748l.4554,1.6515a3.66,3.66,0,0,1,.1148,1.8612,1.8607,1.8607,0,0,1-1.007,1.2146,2.2948,2.2948,0,0,1-1.3549.2692,2.6713,2.6713,0,0,1-1.3543-.5791A4.34,4.34,0,0,1,5.2584,63.4593Z"/><path class="cls-1" d="M2.274,56.1327l7.7928-2.66.5561,1.6294L2.83,57.7621Z"/><path class="cls-1" d="M.0769,44.4135l8.1677-1.0442.1961,1.5345-4.257.5443-2.3979.2311.0031.0248L8.724,47.119l.1787,1.3984L2.5452,51.6193l.0032.0248,2.3773-.392,4.2571-.5443.1977,1.5469L1.2129,53.299.8965,50.8239l4.2668-2.0422,1.7774-.7555-.0031-.0248-1.9-.2979L.3838,46.8143Z"/><path class="cls-1" d="M.5635,36.9663a4.1462,4.1462,0,0,1,.8058-2.0144,3.3974,3.3974,0,0,1,1.638-1.1388A4.92,4.92,0,0,1,5.324,33.654a4.92,4.92,0,0,1,2.1785.8041,3.3978,3.3978,0,0,1,1.2518,1.5534,4.1464,4.1464,0,0,1,.2068,2.16,4.214,4.214,0,0,1-.8075,2.0267,3.476,3.476,0,0,1-1.64,1.1511,5.028,5.028,0,0,1-2.315.1468,5.0273,5.0273,0,0,1-2.18-.7918,3.4754,3.4754,0,0,1-1.25-1.5657A4.2147,4.2147,0,0,1,.5635,36.9663Zm1.3955.2a1.9374,1.9374,0,0,0,.4982,1.71,3.3651,3.3651,0,0,0,1.995.8534,3.4212,3.4212,0,0,0,2.1668-.2562,1.9508,1.9508,0,0,0,.9466-1.5027,1.9026,1.9026,0,0,0-.4894-1.6835A3.3666,3.3666,0,0,0,5.0706,35.42a3.3111,3.3111,0,0,0-2.1562.27A1.8894,1.8894,0,0,0,1.959,37.1665Z"/><path class="cls-1" d="M73.1267,73.8476a3.28,3.28,0,0,1-2.0241,1.06,2.2307,2.2307,0,0,1-1.85-.7125,2.4,2.4,0,0,1-.736-1.3965,2.3718,2.3718,0,0,1,.323-1.4809l-3.9844-.8614,1.3724-1.3624,3.5961.8776,1.0979-1.09-2.2238-2.24,1.2041-1.1954L75.7031,71.29Zm-2.5129-2.8145q-1.0182,1.0108-.1743,1.8608t1.862-.1609l1.2306-1.2217-1.6876-1.7Z"/><path class="cls-1" d="M64.3709,70.7412l4.3947,6.9633-5.2224,3.296-.7392-1.1711,3.7666-2.3771-1.0921-1.73-2.9646,1.8711-.7059-1.1184,2.9647-1.8711-1.1186-1.7724-3.9142,2.47L59.0007,74.13Z"/><path class="cls-1" d="M34.3811,83.8209l4.4034.58.2722-2.0656-3.4757-.4579.1825-1.3854,3.4757.458.44-3.34,1.7069.2249-1.0756,8.1636-6.11-.8051Z"/><path class="cls-1" d="M34.5482,76.83l-2.7474,7.7622L25.9791,82.532l.462-1.3055L30.64,82.7126l.6827-1.9288-3.3048-1.17.4412-1.2467,3.3049,1.17.6993-1.9758L28.1,76.0169l.462-1.3055Z"/><path class="cls-1" d="M25.1881,74.3665,21.4912,72.09l.7262-1.1792L27.38,74.09l-4.3177,7.0113-1.466-.9028Z"/><path class="cls-1" d="M14.8082,75.2956l5.3159-6.2883,1.3148,1.1115L16.123,76.4071Z"/><path class="cls-1" d="M10.6252,71.24a4.7112,4.7112,0,0,1-.99-1.7479,3.8611,3.8611,0,0,1-.0712-1.8458l1.4682.0061a3.2941,3.2941,0,0,0,.0115,1.47,2.9845,2.9845,0,0,0,.6731,1.2636,1.8134,1.8134,0,0,0,.9828.6857.8636.8636,0,0,0,.7658-.18.7625.7625,0,0,0,.2731-.563,2.2068,2.2068,0,0,0-.309-.9349L12.6955,68a3.4936,3.4936,0,0,1-.5123-1.8618,1.8894,1.8894,0,0,1,.7112-1.3169,2.319,2.319,0,0,1,1.3367-.5879,2.7076,2.7076,0,0,1,1.444.3228A4.7435,4.7435,0,0,1,17.04,65.6871a5.3388,5.3388,0,0,1,1.13,2.0063,4.0975,4.0975,0,0,1,.1186,1.92l-1.5143.0169A3.342,3.342,0,0,0,16.7755,68.1a3.5624,3.5624,0,0,0-.7869-1.5112,2.2775,2.2775,0,0,0-.953-.7276.826.826,0,0,0-.8267.1668.7741.7741,0,0,0-.2705.5279,1.4882,1.4882,0,0,0,.2454.8416l.8044,1.5125a3.658,3.658,0,0,1,.5177,1.7914,1.8607,1.8607,0,0,1-.7179,1.405,2.2959,2.2959,0,0,1-1.2636.5581,2.673,2.673,0,0,1-1.4481-.27A4.3409,4.3409,0,0,1,10.6252,71.24Z"/><path class="cls-1" d="M24.3253,11.0419a3.1647,3.1647,0,0,1,.0212,2.2334,4.0253,4.0253,0,0,1-1.4078,1.7689,4.2154,4.2154,0,0,1-2.01.8486,3.4751,3.4751,0,0,1-1.9711-.3587,5.0284,5.0284,0,0,1-1.73-1.5447,4.92,4.92,0,0,1-.9577-2.1155,3.4747,3.4747,0,0,1,.2366-1.99,4.5548,4.5548,0,0,1,3.4268-2.5,2.6963,2.6963,0,0,1,1.9523.5433l-.8616,1.4584a1.876,1.876,0,0,0-1.1518-.4675,1.8334,1.8334,0,0,0-1.0959.4062,2.0163,2.0163,0,0,0-.8773,1.5631,3.2121,3.2121,0,0,0,.7636,2.0417,3.3437,3.3437,0,0,0,1.7069,1.3449,1.9778,1.9778,0,0,0,1.772-.3938,1.89,1.89,0,0,0,.7183-.98,1.9174,1.9174,0,0,0-.09-1.2982Z"/><path class="cls-1" d="M26.0232,3.5721a4.1454,4.1454,0,0,1,2.1384-.3663,3.3974,3.3974,0,0,1,1.8271.801,4.92,4.92,0,0,1,1.3469,1.8918A4.9191,4.9191,0,0,1,31.789,8.176a3.3982,3.3982,0,0,1-.67,1.8792,4.1457,4.1457,0,0,1-1.733,1.3054,4.2137,4.2137,0,0,1-2.15.3712,3.4753,3.4753,0,0,1-1.8386-.7961,5.0278,5.0278,0,0,1-1.3353-1.8966,5.0277,5.0277,0,0,1-.4649-2.2726,3.4749,3.4749,0,0,1,.6813-1.8841A4.2153,4.2153,0,0,1,26.0232,3.5721Zm.5588,1.2942A1.9378,1.9378,0,0,0,25.3848,6.185,3.3655,3.3655,0,0,0,25.7,8.3318a3.4221,3.4221,0,0,0,1.3512,1.7132,1.9513,1.9513,0,0,0,1.7759.0214A1.9029,1.9029,0,0,0,30.0066,8.769a3.3674,3.3674,0,0,0-.3089-2.1632A3.3116,3.3116,0,0,0,28.34,4.9091,1.89,1.89,0,0,0,26.582,4.8663Z"/><path class="cls-1" d="M39.4323.1642l1.3566,8.1216-1.9442.3248-3.64-4.3-.9235-1.2118-.0123.002.2836,1.3946.7852,4.7007-1.5259.2549L32.4551,1.33,34.387,1.007l3.6381,4.2874.9255,1.2241.0246-.0041L38.6916,5.12,37.9064.4191Z"/><path class="cls-1" d="M49.0739.3914l-.0748,1.3828L46.246,1.6253l-.37,6.8393L44.157,8.3717l.37-6.8393-2.7656-.15L41.8359,0Z"/><path class="cls-1" d="M49.0611,8.7,51.2148.7528l5.9607,1.6153-.3623,1.3366L52.5144,2.54l-.5352,1.9748,3.3837.9169L55.017,6.708l-3.3837-.917-.5482,2.023,4.4674,1.2106L55.19,10.3613Z"/><path class="cls-1" d="M66.5862,6.9083l-3.9238,7.2391-1.733-.9394-.227-5.629.0169-1.5235L60.7084,6.05l-.6339,1.2742-2.2711,4.19-1.36-.7372,3.9239-7.2391,1.722.9334.2329,5.6181-.0229,1.5345.022.0118.6339-1.2741,2.271-4.19Z"/><path class="cls-1" d="M74.09,13.0461l-.9093,1.0445-2.08-1.8105-4.4974,5.1658-1.2985-1.1305L69.8026,11.15,67.7137,9.331l.9093-1.0445Z"/><path class="cls-1" d="M77.5246,17.08a4.7084,4.7084,0,0,1,.8733,1.809,3.86,3.86,0,0,1-.05,1.8465l-1.4647-.1023a3.2935,3.2935,0,0,0,.0849-1.4672,2.9843,2.9843,0,0,0-.5889-1.305,1.8129,1.8129,0,0,0-.9357-.7485.8637.8637,0,0,0-.776.13.7626.7626,0,0,0-.3094.5439,2.2094,2.2094,0,0,0,.247.9532l.6413,1.4372a3.4936,3.4936,0,0,1,.3892,1.8914,1.89,1.89,0,0,1-.7959,1.2676,2.32,2.32,0,0,1-1.3724.499,2.7087,2.7087,0,0,1-1.42-.4167A4.7454,4.7454,0,0,1,70.76,22.2a5.3369,5.3369,0,0,1-.9955-2.076A4.0964,4.0964,0,0,1,69.7721,18.2l1.512.0824a3.3421,3.3421,0,0,0-.1023,1.527,3.5606,3.5606,0,0,0,.6862,1.56,2.2768,2.2768,0,0,0,.9033.7885.8258.8258,0,0,0,.8358-.1123.7738.7738,0,0,0,.3045-.509,1.4889,1.4889,0,0,0-.19-.8558l-.7036-1.562a3.6588,3.6588,0,0,1-.3992-1.8215,1.8608,1.8608,0,0,1,.8084-1.3549,2.2957,2.2957,0,0,1,1.2975-.4741,2.6724,2.6724,0,0,1,1.4273.3643A4.34,4.34,0,0,1,77.5246,17.08Z"/><rect class="cls-2" y="0.1642" width="87" height="85.8358"/></g></g></svg>